# xmcd
#
# Track frame offsets: 
#        150
#        11185
#        18990
#        30055
#        39130
#        49645
#        58339
#        66810
#        81672
#        92452
#
# Disc length: 1339 seconds
#
# Revision: 11
# Processed by: cddbd v1.5.2PL0 Copyright (c) Steve Scherf et al.
# Submitted via: ExactAudioCopy v0.99pb4
#
DISCID=7205390a
DTITLE=Roger Miller - Super Hits
DYEAR=1996
DGENRE=Country
TTITLE0=King of the Road
TTITLE1=Dang Me
TTITLE2=Husbands And Wives
TTITLE3=Chug-A-Lug
TTITLE4=Please Release Me
TTITLE5=England Swings
TTITLE6=You Can't Roller Skate in a Buffalo Herd
TTITLE7=Me and Bobby McGee
TTITLE8=Don't We All Have the Right (To Be Wrong Now and Then)
TTITLE9=In the Summertime (You Don't Want My Love)
EXTD=YEAR: 1996
EXTT0=
EXTT1=
EXTT2=
EXTT3=
EXTT4=
EXTT5=
EXTT6=
EXTT7=
EXTT8=
EXTT9=
PLAYORDER=
